<svg width="20" height="20" viewBox="0 0 20 20" fill="none" xmlns="http://www.w3.org/2000/svg">
<path d="M2.14286 4.28643H0.714286C0.524845 4.28643 0.343164 4.21117 0.209209 4.07722C0.0752549 3.94326 0 3.76158 0 3.57214C0 3.3827 0.0752549 3.20102 0.209209 3.06706C0.343164 2.93311 0.524845 2.85785 0.714286 2.85785H6.42857V0.713569C6.42857 0.524128 6.50383 0.342447 6.63778 0.208492C6.77174 0.0745378 6.95342 -0.000717163 7.14286 -0.000717163H12.8571C13.0466 -0.000717163 13.2283 0.0745378 13.3622 0.208492C13.4962 0.342447 13.5714 0.524128 13.5714 0.713569V2.85785H19.2857C19.4752 2.85785 19.6568 2.93311 19.7908 3.06706C19.9247 3.20102 20 3.3827 20 3.57214C20 3.76158 19.9247 3.94326 19.7908 4.07722C19.6568 4.21117 19.4752 4.28643 19.2857 4.28643H17.8571V19.2864C17.8571 19.4759 17.7819 19.6576 17.6479 19.7915C17.514 19.9255 17.3323 20.0007 17.1429 20.0007H2.85714C2.6677 20.0007 2.48602 19.9255 2.35207 19.7915C2.21811 19.6576 2.14286 19.4759 2.14286 19.2864V4.28643ZM12.1429 2.85785V1.42928H7.85714V2.85785H12.1429ZM3.57143 18.5721H16.4286V4.28643H3.57143V18.5721ZM7.85714 15.715C7.6677 15.715 7.48602 15.6397 7.35207 15.5058C7.21811 15.3718 7.14286 15.1902 7.14286 15.0007V7.85785C7.14286 7.66841 7.21811 7.48673 7.35207 7.35278C7.48602 7.21882 7.6677 7.14357 7.85714 7.14357C8.04658 7.14357 8.22826 7.21882 8.36222 7.35278C8.49617 7.48673 8.57143 7.66841 8.57143 7.85785V15.0007C8.57143 15.1902 8.49617 15.3718 8.36222 15.5058C8.22826 15.6397 8.04658 15.715 7.85714 15.715ZM12.1429 15.715C11.9534 15.715 11.7717 15.6397 11.6378 15.5058C11.5038 15.3718 11.4286 15.1902 11.4286 15.0007V7.85785C11.4286 7.66841 11.5038 7.48673 11.6378 7.35278C11.7717 7.21882 11.9534 7.14357 12.1429 7.14357C12.3323 7.14357 12.514 7.21882 12.6479 7.35278C12.7819 7.48673 12.8571 7.66841 12.8571 7.85785V15.0007C12.8571 15.1902 12.7819 15.3718 12.6479 15.5058C12.514 15.6397 12.3323 15.715 12.1429 15.715Z" fill="#FF6565"/>
</svg>
