<svg width="100" height="101" viewBox="0 0 100 101" fill="none" xmlns="http://www.w3.org/2000/svg">
<path fill-rule="evenodd" clip-rule="evenodd" d="M27.3034 7.18971C29.6226 6.03021 32.3894 4.66667 37.5 4.66667C42.6104 4.66667 45.3775 6.03008 47.6967 7.18958L47.7629 7.22279C49.5779 8.13046 50.9829 8.83296 54.1667 8.83304C59.3213 8.83325 62.3742 6.91129 63.3921 6.14633C64.9767 4.9555 66.8488 5.05592 68.1413 5.65375C69.4504 6.25929 70.8334 7.70413 70.8334 9.8395V54.6667H83.3334C90.2342 54.6667 95.8334 60.2562 95.8334 67.1625V79.6667C95.8334 83.5208 94.8579 86.6883 93.1804 89.2046C91.5204 91.6946 89.3367 93.3025 87.28 94.3308C85.2396 95.3512 83.2496 95.8404 81.8046 96.0812C80.9371 96.2258 80.0484 96.335 79.1667 96.3333H20.8334C16.9793 96.3333 13.8117 95.3579 11.2955 93.6804C8.80548 92.0204 7.19748 89.8367 6.16906 87.78C5.14885 85.7396 4.65948 83.7496 4.41869 82.305C4.29665 81.5725 4.23402 80.9533 4.20169 80.5008C4.17477 80.1237 4.16681 79.9004 4.16669 79.6667V9.83942C4.16669 7.70413 5.54935 6.25929 6.8586 5.65375C8.15119 5.05588 10.0234 4.95546 11.6079 6.14621C12.6258 6.91117 15.6787 8.83304 20.8334 8.83304C24.0173 8.83304 25.422 8.13058 27.237 7.22292L27.3034 7.18971ZM12.5139 79.6667L12.5 15.8488C14.7508 16.6074 17.5305 17.1664 20.8334 17.1664C25.944 17.1664 28.7108 15.8029 31.03 14.6434L31.0964 14.6102C32.9114 13.7025 34.3161 13 37.5 13C40.6841 13 42.0888 13.7025 43.9038 14.6101L43.97 14.6433C46.2892 15.8028 49.0559 17.1663 54.1667 17.1664C57.4696 17.1665 60.2492 16.6075 62.5 15.8489V79.6667C62.5 82.9292 63.1992 85.7 64.4313 88H20.8334C18.4374 88 16.9175 87.4129 15.9181 86.7467C14.8925 86.0629 14.1567 85.1217 13.6226 84.0533C13.0804 82.9687 12.7885 81.8337 12.6386 80.935C12.5682 80.5121 12.5255 80.0933 12.5139 79.6667ZM80.435 87.8612C81.3338 87.7117 82.4688 87.4196 83.5533 86.8775C84.6217 86.3433 85.5629 85.6075 86.2467 84.5821C86.9129 83.5825 87.5 82.0625 87.5 79.6667V67.1625C87.5 64.8642 85.6371 63 83.3334 63H70.8334V79.6667C70.8334 82.0625 71.4204 83.5825 72.0867 84.5821C72.7704 85.6075 73.7117 86.3433 74.78 86.8775C75.8646 87.4196 76.9996 87.7117 77.8988 87.8612C78.3383 87.9346 78.6954 87.9696 78.9263 87.9862C79.4288 88.0221 79.9404 87.9437 80.435 87.8612Z" fill="#DBDBDB"/>
<path d="M20.8333 33.8333C20.8333 31.5322 22.6988 29.6667 25 29.6667H50C52.3012 29.6667 54.1666 31.5322 54.1666 33.8333C54.1666 36.1345 52.3012 38 50 38H25C22.6988 38 20.8333 36.1345 20.8333 33.8333Z" fill="#DBDBDB"/>
<path d="M20.8333 50.5C20.8333 48.1987 22.6988 46.3333 25 46.3333H50C52.3012 46.3333 54.1666 48.1987 54.1666 50.5C54.1666 52.8012 52.3012 54.6667 50 54.6667H25C22.6988 54.6667 20.8333 52.8012 20.8333 50.5Z" fill="#DBDBDB"/>
<path d="M20.8333 67.1667C20.8333 64.8654 22.6988 63 25 63H50C52.3012 63 54.1666 64.8654 54.1666 67.1667C54.1666 69.4679 52.3012 71.3333 50 71.3333H25C22.6988 71.3333 20.8333 69.4679 20.8333 67.1667Z" fill="#DBDBDB"/>
</svg>
