<svg width="19" height="20" viewBox="0 0 19 20" fill="none" xmlns="http://www.w3.org/2000/svg">
<path fill-rule="evenodd" clip-rule="evenodd" d="M0.393832 0.204694C0.703982 -0.0317062 1.12327 -0.0662462 1.46793 0.116214L18.4679 9.11621C18.7953 9.28951 19 9.62961 19 10C19 10.3704 18.7953 10.7105 18.4679 10.8838L1.46793 19.8838C1.12327 20.0662 0.703982 20.0317 0.393832 19.7953C0.0836824 19.5589 -0.0607476 19.1637 0.0238524 18.7831L1.97564 10L0.0238524 1.21693C-0.0607476 0.836244 0.0836824 0.441104 0.393832 0.204694ZM3.80221 11L2.44599 17.103L13.9739 11H3.80221ZM13.9739 9.00001H3.80221L2.44599 2.897L13.9739 9.00001Z" fill="#666666"/>
</svg>
